#!OML:ASF F:\VICON\USERDATA\INSTALL\rory3\rory3.ASF
:FULLY-SPECIFIED
:DEGREES
1509
root -0.282155 17.981 -2.44449 0.55698 36.4922 0.119209
lowerback 7.67001 13.8725 6.02224
upperback -0.74494 18.95 -3.11649
thorax -1.97183 9.41196 -7.67186
lowerneck -13.2035 -1.94603 -8.05488
upperneck 10.2947 -2.07445 7.41814
head 5.4241 -0.801244 3.48024
rclavicle 6.56611e-014 -5.56597e-015
rhumerus 13.9697 57.8192 -53.4443
rradius 83.8707
rwrist 17.4595
rhand -26.1523 12.6226
rfingers 7.12502
rthumb 0.398611 -17.3568
lclavicle 6.56611e-014 -5.56597e-015
lhumerus -49.5221 18.9643 19.7794
lradius 84.6334
lwrist -1.92079
lhand -36.2974 6.1051
lfingers 7.12502
lthumb -9.3968 35.8756
rfemur 12.0483 8.44995 15.6742
rtibia 16.0087
rfoot -34.8612 -31.0245
rtoes 4.27937
lfemur -22.988 -17.7882 -1.42162
ltibia 21.7743
lfoot -2.75508 -6.31292
ltoes -15.7241
1510
root -0.274802 17.9882 -2.45157 0.53503 35.7723 0.115331
lowerback 7.62837 13.7052 6.11805
upperback -0.735932 18.7341 -3.04995
thorax -1.96857 9.30196 -7.63977
lowerneck -13.4843 -1.98653 -8.02979
upperneck 10.8589 -2.10876 7.21338
head 5.64775 -0.827496 3.41255
rclavicle -8.15017e-015 1.82882e-014
rhumerus 13.1314 57.4519 -53.9233
rradius 83.4945
rwrist 17.3782
rhand -26.0747 12.8235
rfingers 7.12502
rthumb 0.473587 -17.1557
lclavicle -8.15017e-015 1.82882e-014
lhumerus -49.4601 19.1089 19.5154
lradius 84.5095
lwrist -1.88565
lhand -36.4175 5.96216
lfingers 7.12502
lthumb -9.51264 35.7274
rfemur 11.8744 8.74188 15.4883
rtibia 16.0091
rfoot -34.4305 -30.8338
rtoes 3.96953
lfemur -22.6256 -17.6193 -1.45411
ltibia 21.6745
lfoot -2.94076 -5.82604
ltoes -16.2995
1511
root -0.26646 17.9959 -2.45853 0.576245 35.0119 0.236096
lowerback 7.50734 13.4392 6.04391
upperback -0.575931 18.3655 -2.85233
thorax -1.88323 9.12357 -7.36119
lowerneck -13.7072 -1.93424 -8.65895
upperneck 10.9845 -1.92613 7.3748
head 5.71759 -0.750567 3.58595
rclavicle -4.19684e-014 -2.34566e-014
rhumerus 13.1227 57.3244 -53.4746
rradius 83.1696
rwrist 17.2335
rhand -25.9271 12.8698
rfingers 7.12502
rthumb 0.616125 -17.109
lclavicle -4.19684e-014 -2.34566e-014
lhumerus -49.8356 19.5311 19.3387
lradius 84.5399
lwrist -1.67458
lhand -36.5738 6.26565
lfingers 7.12502
lthumb -9.66341 36.024
rfemur 11.7257 9.02151 15.1665
rtibia 15.9837
rfoot -33.8963 -30.6022
rtoes 3.66704
lfemur -22.2412 -17.5003 -1.59154
ltibia 21.6216
lfoot -3.14518 -5.25369
ltoes -16.1835
1512
root -0.258808 18.0031 -2.46499 0.606451 34.2678 0.319447
lowerback 7.41531 13.11 6.04814
upperback -0.46189 17.9216 -2.70504
thorax -1.8309 8.9045 -7.18189
lowerneck -13.6303 -1.80704 -9.40552
upperneck 10.7182 -1.66213 7.79503
head 5.60872 -0.623344 3.86545
rclavicle 7.47058e-014 -1.78906e-014
rhumerus 13.2644 57.1956 -53.0004
rradius 82.8576
rwrist 17.1794
rhand -25.7189 13.0225
rfingers 7.12502
rthumb 0.817214 -16.9557
lclavicle 7.47058e-014 -1.78906e-014
lhumerus -50.1478 19.928 18.9857
lradius 84.4595
lwrist -1.45152
lhand -36.5979 6.58161
lfingers 7.12502
lthumb -9.68673 36.3389
rfemur 11.5941 9.45156 14.9432
rtibia 15.9482
rfoot -33.5663 -30.4347
rtoes 3.45237
lfemur -21.8916 -17.3329 -1.70171
ltibia 21.6211
lfoot -3.39777 -4.77839
ltoes -16.3973
1513
root -0.24875 18.0077 -2.47265 0.460733 33.5706 0.172442
lowerback 7.49882 12.8923 6.38895
upperback -0.546769 17.6672 -2.74131
thorax -1.8948 8.76876 -7.40881
lowerneck -13.4624 -1.79119 -9.44615
upperneck 10.6976 -1.67 7.96993
head 5.57655 -0.61881 3.92758
rclavicle -7.24322e-015 1.07344e-014
rhumerus 12.3184 56.6443 -53.6257
rradius 82.5344
rwrist 17.1123
rhand -25.1977 12.7379
rfingers 7.12502
rthumb 1.32064 -17.2377
lclavicle -7.24322e-015 1.07344e-014
lhumerus -49.8414 20.0105 18.6168
lradius 84.3382
lwrist -1.31608
lhand -36.6402 6.49068
lfingers 7.12502
lthumb -9.72753 36.246
rfemur 11.4997 9.81637 14.9263
rtibia 15.9473
rfoot -33.2175 -30.2762
rtoes 3.20211
lfemur -21.4951 -17.1437 -1.6236
ltibia 21.575
lfoot -3.56544 -4.37761
ltoes -16.1892
1514
root -0.239449 18.0133 -2.48217 0.32376 32.8233 0.0377394
lowerback 7.78328 12.7947 6.80562
upperback -0.782277 17.5942 -2.93936
thorax -2.12556 8.71108 -7.90502
lowerneck -13.2769 -1.88936 -9.0902
upperneck 10.8657 -1.9021 8.03671
head 5.61637 -0.715258 3.8718
rclavicle 1.76608e-013 -1.74931e-014
rhumerus 10.6478 55.7444 -54.9152
rradius 82.1772
rwrist 17.074
rhand -24.856 11.9304
rfingers 7.12502
rthumb 1.65067 -18.043
lclavicle 1.76608e-013 -1.74931e-014
lhumerus -49.04 19.8008 18.3851
lradius 84.204
lwrist -1.23397
lhand -36.7591 6.59527
lfingers 7.12502
lthumb -9.84224 36.3452
rfemur 11.3569 10.1639 14.8605
rtibia 15.9422
rfoot -32.7323 -30.1187
rtoes 2.78069
lfemur -21.0623 -16.9806 -1.54734
ltibia 21.4896
lfoot -3.71141 -3.8786
ltoes -15.6782
